<svg width="199" height="36" viewBox="0 0 199 36" fill="none" xmlns="http://www.w3.org/2000/svg">
<g filter="url(#filter0_i)">
<path d="M8.79863 35C7.99863 35 7.47063 34.6 7.21463 33.8L0.206625 11.576L0.158625 11.192C0.158625 10.872 0.270625 10.6 0.494625 10.376C0.718625 10.152 0.990625 10.04 1.31063 10.04H8.70263C9.15063 10.04 9.50263 10.152 9.75863 10.376C10.0466 10.6 10.2386 10.872 10.3346 11.192L13.2626 21.176L16.3826 11.192C16.4786 10.872 16.6546 10.6 16.9106 10.376C17.1986 10.152 17.5666 10.04 18.0146 10.04H22.4786C22.9266 10.04 23.2786 10.152 23.5346 10.376C23.8226 10.6 24.0146 10.872 24.1106 11.192L27.2306 21.176L30.1586 11.192C30.2546 10.872 30.4306 10.6 30.6866 10.376C30.9746 10.152 31.3426 10.04 31.7906 10.04H39.1826C39.5026 10.04 39.7746 10.152 39.9986 10.376C40.2226 10.6 40.3346 10.872 40.3346 11.192L40.2866 11.576L33.2786 33.8C33.0226 34.6 32.4946 35 31.6946 35H25.2626C24.4626 35 23.9346 34.6 23.6786 33.8L20.2706 24.104L16.8146 33.8C16.5586 34.6 16.0306 35 15.2306 35H8.79863ZM55.3845 35.48C51.0325 35.48 47.6565 34.424 45.2565 32.312C42.8565 30.168 41.6565 26.92 41.6565 22.568V22.232C41.7205 18.168 42.9685 15.048 45.4005 12.872C47.8645 10.664 51.1765 9.56 55.3365 9.56C58.3445 9.56 60.8725 10.152 62.9205 11.336C65.0005 12.488 66.5365 14.056 67.5285 16.04C68.5205 17.992 69.0165 20.184 69.0165 22.616V24.056C69.0165 24.408 68.8885 24.712 68.6325 24.968C68.3765 25.224 68.0725 25.352 67.7205 25.352H53.4165V25.592C53.4165 26.584 53.5605 27.32 53.8485 27.8C54.1365 28.28 54.6165 28.52 55.2885 28.52C55.5445 28.52 55.7525 28.472 55.9125 28.376C56.0725 28.248 56.3285 28.008 56.6805 27.656C56.9685 27.368 57.2085 27.192 57.4005 27.128C57.5925 27.032 57.8805 26.984 58.2645 26.984H67.3365C67.6245 26.984 67.8645 27.08 68.0565 27.272C68.2805 27.432 68.3925 27.656 68.3925 27.944C68.3925 28.84 67.8965 29.896 66.9045 31.112C65.9125 32.296 64.4245 33.32 62.4405 34.184C60.4885 35.048 58.1365 35.48 55.3845 35.48ZM57.2565 19.352V19.304C57.2565 17.288 56.6165 16.28 55.3365 16.28C54.0565 16.28 53.4165 17.288 53.4165 19.304V19.352H57.2565ZM90.2348 35.48C87.1948 35.48 84.8268 34.52 83.1308 32.6V33.704C83.1308 34.056 83.0028 34.36 82.7468 34.616C82.4908 34.872 82.1868 35 81.8348 35H73.6748C73.3228 35 73.0188 34.872 72.7628 34.616C72.5068 34.36 72.3788 34.056 72.3788 33.704V2.216C72.3788 1.864 72.5068 1.56 72.7628 1.304C73.0188 1.048 73.3228 0.919998 73.6748 0.919998H82.5547C82.9068 0.919998 83.2108 1.048 83.4668 1.304C83.7228 1.56 83.8508 1.864 83.8508 2.216V11.816C85.5148 10.312 87.6428 9.56 90.2348 9.56C93.1468 9.56 95.5308 10.504 97.3868 12.392C99.2748 14.248 100.283 16.984 100.411 20.6C100.443 21.08 100.459 21.704 100.459 22.472C100.459 23.272 100.443 23.912 100.411 24.392C100.251 28.2 99.2588 31 97.4348 32.792C95.6108 34.584 93.2108 35.48 90.2348 35.48ZM86.2508 26.888C87.0828 26.888 87.6588 26.664 87.9788 26.216C88.3308 25.768 88.5548 25.064 88.6508 24.104C88.7148 23.464 88.7468 22.936 88.7468 22.52C88.7468 22.104 88.7148 21.576 88.6508 20.936C88.5548 19.976 88.3308 19.272 87.9788 18.824C87.6588 18.376 87.0828 18.152 86.2508 18.152C85.4508 18.152 84.8588 18.36 84.4748 18.776C84.1228 19.16 83.9148 19.752 83.8508 20.552C83.8188 21.032 83.8028 21.624 83.8028 22.328C83.8028 23.032 83.8188 23.624 83.8508 24.104C83.9148 25.032 84.1228 25.736 84.4748 26.216C84.8268 26.664 85.4188 26.888 86.2508 26.888ZM110.611 35C109.811 35 109.283 34.6 109.027 33.8L102.019 11.576L101.971 11.192C101.971 10.872 102.083 10.6 102.307 10.376C102.531 10.152 102.803 10.04 103.123 10.04H110.515C110.963 10.04 111.315 10.152 111.571 10.376C111.859 10.6 112.051 10.872 112.147 11.192L115.075 21.176L118.195 11.192C118.291 10.872 118.467 10.6 118.723 10.376C119.011 10.152 119.379 10.04 119.827 10.04H124.291C124.739 10.04 125.091 10.152 125.347 10.376C125.635 10.6 125.827 10.872 125.923 11.192L129.043 21.176L131.971 11.192C132.067 10.872 132.243 10.6 132.499 10.376C132.787 10.152 133.155 10.04 133.603 10.04H140.995C141.315 10.04 141.587 10.152 141.811 10.376C142.035 10.6 142.147 10.872 142.147 11.192L142.099 11.576L135.091 33.8C134.835 34.6 134.307 35 133.507 35H127.075C126.275 35 125.747 34.6 125.491 33.8L122.083 24.104L118.627 33.8C118.371 34.6 117.843 35 117.043 35H110.611ZM146.378 35C146.026 35 145.722 34.872 145.466 34.616C145.21 34.36 145.082 34.056 145.082 33.704V11.336C145.082 10.984 145.21 10.68 145.466 10.424C145.722 10.168 146.026 10.04 146.378 10.04H154.778C155.13 10.04 155.434 10.168 155.69 10.424C155.946 10.68 156.074 10.984 156.074 11.336V13.016C157.13 12.088 158.298 11.368 159.578 10.856C160.858 10.312 162.186 10.04 163.562 10.04H165.866C166.218 10.04 166.522 10.168 166.778 10.424C167.034 10.68 167.162 10.984 167.162 11.336V18.824C167.162 19.176 167.034 19.48 166.778 19.736C166.522 19.992 166.218 20.12 165.866 20.12H159.674C157.754 20.12 156.794 21.08 156.794 23V33.704C156.794 34.056 156.666 34.36 156.41 34.616C156.154 34.872 155.85 35 155.498 35H146.378ZM171.222 35C170.87 35 170.566 34.872 170.31 34.616C170.054 34.36 169.926 34.056 169.926 33.704V2.216C169.926 1.864 170.054 1.56 170.31 1.304C170.566 1.048 170.87 0.919998 171.222 0.919998H179.622C179.974 0.919998 180.278 1.048 180.534 1.304C180.79 1.56 180.918 1.864 180.918 2.216V17.768L185.142 10.856C185.462 10.312 185.926 10.04 186.534 10.04H196.23C196.55 10.04 196.822 10.152 197.046 10.376C197.27 10.6 197.382 10.872 197.382 11.192C197.382 11.416 197.302 11.656 197.142 11.912L190.566 21.272L198.342 33.224C198.47 33.416 198.534 33.624 198.534 33.848C198.534 34.168 198.422 34.44 198.198 34.664C197.974 34.888 197.702 35 197.382 35H187.302C186.662 35 186.166 34.728 185.814 34.184L180.918 26.024V33.704C180.918 34.056 180.79 34.36 180.534 34.616C180.278 34.872 179.974 35 179.622 35H171.222Z" fill="white"/>
</g>
<defs>
<filter id="filter0_i" x="0.15863" y="0.919998" width="198.375" height="38.56" filterUnits="userSpaceOnUse" color-interpolation-filters="sRGB">
<feFlood flood-opacity="0" result="BackgroundImageFix"/>
<feBlend mode="normal" in="SourceGraphic" in2="BackgroundImageFix" result="shape"/>
<feColorMatrix in="SourceAlpha" type="matrix" values="0 0 0 0 0 0 0 0 0 0 0 0 0 0 0 0 0 0 127 0" result="hardAlpha"/>
<feOffset dy="4"/>
<feGaussianBlur stdDeviation="2"/>
<feComposite in2="hardAlpha" operator="arithmetic" k2="-1" k3="1"/>
<feColorMatrix type="matrix" values="0 0 0 0 0.401747 0 0 0 0 0.401747 0 0 0 0 0.401747 0 0 0 0.25 0"/>
<feBlend mode="normal" in2="shape" result="effect1_innerShadow"/>
</filter>
</defs>
</svg>
